<?xml version="1.0" encoding="UTF-8" standalone="no"?>
<svg width="320px" height="420px" viewBox="0 0 320 420" version="1.1" xmlns="http://www.w3.org/2000/svg" xmlns:xlink="http://www.w3.org/1999/xlink" xmlns:sketch="http://www.bohemiancoding.com/sketch/ns">
    <title>Slice 1</title>
    <defs></defs>
    <g id="Page 1" stroke="none" stroke-width="1" fill="none" fill-rule="evenodd">
        <g id="Slice 1" transform="translate(-1.000000, -23.000000)">
            <g id="Page 1">
                <g id="BackGround.fw">
                    <g id="Layer%201">
                        <path d="M1,22.4271845 L321,22.4271845 L321,442.427184 L1,442.427184 L1,22.4271845 L1,22.4271845 Z M1,22.4271845" id="Background%20Rectangle" fill="#ECECFB"></path>
                        <path d="M1,374.854369 L321,374.854369" id="Offside%20Line" stroke="#4D7AFF" stroke-width="5" opacity="0.502" fill="#B0B0B0"></path>
                        <path d="M89.5333333,446.262136 C89.5333333,413.821641 121.5296,387.524272 161,387.524272 C200.470507,387.524272 232.466667,413.821641 232.466667,446.262136 C232.466667,478.702631 200.470507,505 161,505 C121.5296,505 89.5333333,478.702631 89.5333333,446.262136 L89.5333333,446.262136 L89.5333333,446.262136 Z M89.5333333,446.262136" id="Center%20Circle" stroke="#B20000" stroke-width="3" opacity="0.502"></path>
                        <path d="M53.2666667,135.097087 C53.2666667,134.212388 53.98304,133.495146 54.8666667,133.495146 C55.7502933,133.495146 56.4666667,134.212388 56.4666667,135.097087 C56.4666667,135.981786 55.7502933,136.699029 54.8666667,136.699029 C53.98304,136.699029 53.2666667,135.981786 53.2666667,135.097087 L53.2666667,135.097087 L53.2666667,135.097087 Z M53.2666667,135.097087" id="Top%20Left%20Dot" stroke="#B20000" stroke-width="2" opacity="0.4" fill="#D90000"></path>
                        <path d="M266.6,135.097087 C266.6,134.212388 267.316373,133.495146 268.2,133.495146 C269.083627,133.495146 269.8,134.212388 269.8,135.097087 C269.8,135.981786 269.083627,136.699029 268.2,136.699029 C267.316373,136.699029 266.6,135.981786 266.6,135.097087 L266.6,135.097087 L266.6,135.097087 Z M266.6,135.097087" id="Top%20Right%20Dot" stroke="#B20000" stroke-width="2" opacity="0.4" fill="#D90000"></path>
                        <path d="M266.6,408.495146 C266.6,407.610447 267.316373,406.893204 268.2,406.893204 C269.083627,406.893204 269.8,407.610447 269.8,408.495146 C269.8,409.379845 269.083627,410.097087 268.2,410.097087 C267.316373,410.097087 266.6,409.379845 266.6,408.495146 L266.6,408.495146 L266.6,408.495146 Z M266.6,408.495146" id="Bottom%20Right%20Dot" stroke="#B20000" stroke-width="3" opacity="0.502" fill="#D90000"></path>
                        <path d="M53.2666667,408.495146 C53.2666667,407.610447 53.98304,406.893204 54.8666667,406.893204 C55.7502933,406.893204 56.4666667,407.610447 56.4666667,408.495146 C56.4666667,409.379845 55.7502933,410.097087 54.8666667,410.097087 C53.98304,410.097087 53.2666667,409.379845 53.2666667,408.495146 L53.2666667,408.495146 L53.2666667,408.495146 Z M53.2666667,408.495146" id="Bottom%20Left%20Dot" stroke="#B20000" stroke-width="3" opacity="0.502" fill="#D90000"></path>
                        <path d="M158.8,442.728155 C158.8,441.843456 159.516373,441.126214 160.4,441.126214 C161.283627,441.126214 162,441.843456 162,442.728155 C162,443.612854 161.283627,444.330097 160.4,444.330097 C159.516373,444.330097 158.8,443.612854 158.8,442.728155 L158.8,442.728155 L158.8,442.728155 Z M158.8,442.728155" id="Ceneter%20Dot" stroke="#B20000" stroke-width="3" opacity="0.502" fill="#D90000"></path>
                        <path d="M1.53333333,3 L1.5333141,462.961165" id="Left%20Edge" stroke="#D90000" opacity="0.502"></path>
                        <path d="M1.53333333,22.961165 L320.466667,22.961165 L320.466667,462.961165" id="Top%20and%20right%20edge" stroke="#D90000" opacity="0.502"></path>
                        <path d="M225,134.563107 C225,110.970029 244.102187,91.8446602 267.666667,91.8446602 C291.231147,91.8446602 310.333333,110.970029 310.333333,134.563107 C310.333333,158.156184 291.231147,177.281553 267.666667,177.281553 C244.102187,177.281553 225,158.156184 225,134.563107 L225,134.563107 L225,134.563107 Z M225,134.563107" id="Right%20Circle" stroke="#B20000" stroke-width="3" opacity="0.502"></path>
                        <path d="M11.6666667,134.563107 C11.6666667,110.970029 30.7688533,91.8446602 54.3333333,91.8446602 C77.8978133,91.8446602 97,110.970029 97,134.563107 C97,158.156184 77.8978133,177.281553 54.3333333,177.281553 C30.7688533,177.281553 11.6666667,158.156184 11.6666667,134.563107 L11.6666667,134.563107 L11.6666667,134.563107 Z M11.6666667,134.563107" id="Left%20Circle" stroke="#B20000" stroke-width="3" opacity="0.502"></path>
                        <path d="M261.266667,143.106796 L261.44448,159.126214" id="RCBLD" stroke="#B20000" stroke-width="3" opacity="0.502"></path>
                        <path d="M274.066667,143.106796 L274.24448,159.126214" id="RCBRD" stroke="#B20000" stroke-width="3" opacity="0.502"></path>
                        <path d="M274.066667,110 L274.24448,126.019417" id="RCTRU" stroke="#B20000" stroke-width="3" opacity="0.502"></path>
                        <path d="M261.266667,110 L261.44448,126.019417" id="RCTLU" stroke="#B20000" stroke-width="3" opacity="0.502"></path>
                        <path d="M47.9333333,110 L48.1111467,126.019417" id="LCTLU" stroke="#B20000" stroke-width="3" opacity="0.502"></path>
                        <path d="M60.7333333,110 L60.9111467,126.019417" id="LCTRU" stroke="#B20000" stroke-width="3" opacity="0.502"></path>
                        <path d="M60.7333333,143.106796 L60.9111467,159.126214" id="LCBRD" stroke="#B20000" stroke-width="3" opacity="0.502"></path>
                        <path d="M47.9333333,143.106796 L48.1111467,159.126214" id="LCBLD" stroke="#B20000" stroke-width="3" opacity="0.502"></path>
                        <path d="M60.7333333,126.019417 L76.7333333,126.019417" id="LCTRR" stroke="#B20000" stroke-width="3" opacity="0.502"></path>
                        <path d="M31.9333333,126.019417 L47.9333333,126.019417" id="LCTLL" stroke="#B20000" stroke-width="3" opacity="0.502"></path>
                        <path d="M31.9333333,143.106796 L47.9333333,143.106796" id="LCBLL" stroke="#B20000" stroke-width="3" opacity="0.502"></path>
                        <path d="M60.7333333,143.106796 L76.7333333,143.106796" id="LCBRR" stroke="#B20000" stroke-width="3" opacity="0.502"></path>
                        <path d="M274.066667,143.106796 L290.066667,143.106796" id="RCBRR" stroke="#B20000" stroke-width="3" opacity="0.502"></path>
                        <path d="M274.066667,126.019417 L290.066667,126.019417" id="RCTRR" stroke="#B20000" stroke-width="3" opacity="0.502"></path>
                        <path d="M313.533333,126.019417 L318.866667,126.019417" id="RCTR" stroke="#B20000" stroke-width="2" opacity="0.502"></path>
                        <path d="M313.533333,143.106796 L318.866667,143.106796" id="RCBR" stroke="#B20000" stroke-width="2" opacity="0.502"></path>
                        <path d="M216.466667,143.106796 L221.8,143.106796" id="RCBL" stroke="#B20000" stroke-width="2" opacity="0.502"></path>
                        <path d="M216.466667,126.019417 L221.8,126.019417" id="RCTL" stroke="#B20000" stroke-width="2" opacity="0.502"></path>
                        <path d="M100.2,126.019417 L105.533333,126.019417" id="LCTR" stroke="#B20000" stroke-width="2" opacity="0.502"></path>
                        <path d="M100.2,143.106796 L105.533333,143.106796" id="LCBR" stroke="#B20000" stroke-width="2" opacity="0.502"></path>
                        <path d="M3.13333333,143.106796 L8.46666667,143.106796" id="LCBL" stroke="#B20000" stroke-width="2" opacity="0.502"></path>
                        <path d="M3.13333333,126.019417 L8.46666667,126.019417" id="LCTL" stroke="#B20000" stroke-width="2" opacity="0.502"></path>
                        <path d="M245.266667,126.019417 L261.266667,126.019417" id="RCTLL" stroke="#B20000" stroke-width="3" opacity="0.502"></path>
                        <path d="M245.266667,143.106796 L261.266667,143.106796" id="RCBLL" stroke="#B20000" stroke-width="3" opacity="0.502"></path>
                        <path d="M134.333333,22.4271845 C134.333333,10.0408641 146.272213,0 161,0 C175.727787,0 187.666667,10.0408641 187.666667,22.4271845 C187.666667,34.8135049 175.727787,44.8543689 161,44.8543689 C146.272213,44.8543689 134.333333,34.8135049 134.333333,22.4271845 L134.333333,22.4271845 L134.333333,22.4271845 Z M134.333333,22.4271845" id="Ellipse" stroke="#B20000" stroke-width="2" opacity="0.502" fill="#4D7AFF"></path>
                    </g>
                </g>
            </g>
        </g>
    </g>
</svg>