<?xml version="1.0" encoding="UTF-8" standalone="no"?>
<svg width="320px" height="410px" viewBox="0 0 320 410" version="1.1" xmlns="http://www.w3.org/2000/svg" xmlns:xlink="http://www.w3.org/1999/xlink" xmlns:sketch="http://www.bohemiancoding.com/sketch/ns">
    <title>Ice Rink</title>
    <defs></defs>
    <g id="Page 1" stroke="none" stroke-width="1" fill="none" fill-rule="evenodd">
        <g id="Slice 1" transform="translate(0.000000, -23.000000)">
            <g id="Page 1">
                <g id="BackGround.fw">
                    <g id="Layer%201">
                        <path d="M0,22.4271845 L320,22.4271845 L320,432.427184 L0,432.427184 L0,22.4271845 L0,22.4271845 Z M0,22.4271845" id="Background%20Rectangle" fill="#ECECFB"></path>
                        <path d="M0,342.9 L320,342.9" id="Offside%20Line" stroke="#4D7AFF" stroke-width="5" opacity="0.502" fill="#B0B0B0"></path>
                        <path d="M88.5333333,432.262136 C88.5333333,399.821641 120.5296,373.524272 160,373.524272 C199.470507,373.524272 231.466667,399.821641 231.466667,432.262136 C231.466667,464.702631 199.470507,491 160,491 C120.5296,491 88.5333333,464.702631 88.5333333,432.262136 L88.5333333,432.262136 L88.5333333,432.262136 Z M88.5333333,432.262136" id="Center%20Circle" stroke="#B20000" stroke-width="3" opacity="0.502"></path>
                        <path d="M52.2666667,135.097087 C52.2666667,134.212388 52.98304,133.495146 53.8666667,133.495146 C54.7502933,133.495146 55.4666667,134.212388 55.4666667,135.097087 C55.4666667,135.981786 54.7502933,136.699029 53.8666667,136.699029 C52.98304,136.699029 52.2666667,135.981786 52.2666667,135.097087 L52.2666667,135.097087 L52.2666667,135.097087 Z M52.2666667,135.097087" id="Top%20Left%20Dot" stroke="#B20000" stroke-width="2" opacity="0.4" fill="#D90000"></path>
                        <path d="M265.6,135.097087 C265.6,134.212388 266.316373,133.495146 267.2,133.495146 C268.083627,133.495146 268.8,134.212388 268.8,135.097087 C268.8,135.981786 268.083627,136.699029 267.2,136.699029 C266.316373,136.699029 265.6,135.981786 265.6,135.097087 L265.6,135.097087 L265.6,135.097087 Z M265.6,135.097087" id="Top%20Right%20Dot" stroke="#B20000" stroke-width="2" opacity="0.4" fill="#D90000"></path>
                        <path d="M265.6,374.495146 C265.6,373.610447 266.316373,372.893204 267.2,372.893204 C268.083627,372.893204 268.8,373.610447 268.8,374.495146 C268.8,375.379845 268.083627,376.097087 267.2,376.097087 C266.316373,376.097087 265.6,375.379845 265.6,374.495146 L265.6,374.495146 L265.6,374.495146 Z M265.6,374.495146" id="Bottom%20Right%20Dot" stroke="#B20000" stroke-width="3" opacity="0.502" fill="#D90000"></path>
                        <path d="M52.2666667,374.495146 C52.2666667,373.610447 52.98304,372.893204 53.8666667,372.893204 C54.7502933,372.893204 55.4666667,373.610447 55.4666667,374.495146 C55.4666667,375.379845 54.7502933,376.097087 53.8666667,376.097087 C52.98304,376.097087 52.2666667,375.379845 52.2666667,374.495146 L52.2666667,374.495146 L52.2666667,374.495146 Z M52.2666667,374.495146" id="Bottom%20Left%20Dot" stroke="#B20000" stroke-width="3" opacity="0.502" fill="#D90000"></path>
                        <path d="M157.8,431.728155 C157.8,430.843456 158.516373,430.126214 159.4,430.126214 C160.283627,430.126214 161,430.843456 161,431.728155 C161,432.612854 160.283627,433.330097 159.4,433.330097 C158.516373,433.330097 157.8,432.612854 157.8,431.728155 L157.8,431.728155 L157.8,431.728155 Z M157.8,431.728155" id="Ceneter%20Dot" stroke="#B20000" stroke-width="3" opacity="0.502" fill="#D90000"></path>
                        <path d="M224,134.563107 C224,110.970029 243.102187,91.8446602 266.666667,91.8446602 C290.231147,91.8446602 309.333333,110.970029 309.333333,134.563107 C309.333333,158.156184 290.231147,177.281553 266.666667,177.281553 C243.102187,177.281553 224,158.156184 224,134.563107 L224,134.563107 L224,134.563107 Z M224,134.563107" id="Right%20Circle" stroke="#B20000" stroke-width="3" opacity="0.502"></path>
                        <path d="M10.6666667,134.563107 C10.6666667,110.970029 29.7688533,91.8446602 53.3333333,91.8446602 C76.8978133,91.8446602 96,110.970029 96,134.563107 C96,158.156184 76.8978133,177.281553 53.3333333,177.281553 C29.7688533,177.281553 10.6666667,158.156184 10.6666667,134.563107 L10.6666667,134.563107 L10.6666667,134.563107 Z M10.6666667,134.563107" id="Left%20Circle" stroke="#B20000" stroke-width="3" opacity="0.502"></path>
                        <path d="M260.266667,143.106796 L260.44448,159.126214" id="RCBLD" stroke="#B20000" stroke-width="3" opacity="0.502"></path>
                        <path d="M273.066667,143.106796 L273.24448,159.126214" id="RCBRD" stroke="#B20000" stroke-width="3" opacity="0.502"></path>
                        <path d="M273.066667,110 L273.24448,126.019417" id="RCTRU" stroke="#B20000" stroke-width="3" opacity="0.502"></path>
                        <path d="M260.266667,110 L260.44448,126.019417" id="RCTLU" stroke="#B20000" stroke-width="3" opacity="0.502"></path>
                        <path d="M46.9333333,110 L47.1111467,126.019417" id="LCTLU" stroke="#B20000" stroke-width="3" opacity="0.502"></path>
                        <path d="M59.7333333,110 L59.9111467,126.019417" id="LCTRU" stroke="#B20000" stroke-width="3" opacity="0.502"></path>
                        <path d="M59.7333333,143.106796 L59.9111467,159.126214" id="LCBRD" stroke="#B20000" stroke-width="3" opacity="0.502"></path>
                        <path d="M46.9333333,143.106796 L47.1111467,159.126214" id="LCBLD" stroke="#B20000" stroke-width="3" opacity="0.502"></path>
                        <path d="M59.7333333,126.019417 L75.7333333,126.019417" id="LCTRR" stroke="#B20000" stroke-width="3" opacity="0.502"></path>
                        <path d="M30.9333333,126.019417 L46.9333333,126.019417" id="LCTLL" stroke="#B20000" stroke-width="3" opacity="0.502"></path>
                        <path d="M30.9333333,143.106796 L46.9333333,143.106796" id="LCBLL" stroke="#B20000" stroke-width="3" opacity="0.502"></path>
                        <path d="M59.7333333,143.106796 L75.7333333,143.106796" id="LCBRR" stroke="#B20000" stroke-width="3" opacity="0.502"></path>
                        <path d="M273.066667,143.106796 L289.066667,143.106796" id="RCBRR" stroke="#B20000" stroke-width="3" opacity="0.502"></path>
                        <path d="M273.066667,126.019417 L289.066667,126.019417" id="RCTRR" stroke="#B20000" stroke-width="3" opacity="0.502"></path>
                        <path d="M312.533333,126.019417 L317.866667,126.019417" id="RCTR" stroke="#B20000" stroke-width="2" opacity="0.502"></path>
                        <path d="M312.533333,143.106796 L317.866667,143.106796" id="RCBR" stroke="#B20000" stroke-width="2" opacity="0.502"></path>
                        <path d="M215.466667,143.106796 L220.8,143.106796" id="RCBL" stroke="#B20000" stroke-width="2" opacity="0.502"></path>
                        <path d="M215.466667,126.019417 L220.8,126.019417" id="RCTL" stroke="#B20000" stroke-width="2" opacity="0.502"></path>
                        <path d="M99.2,126.019417 L104.533333,126.019417" id="LCTR" stroke="#B20000" stroke-width="2" opacity="0.502"></path>
                        <path d="M99.2,143.106796 L104.533333,143.106796" id="LCBR" stroke="#B20000" stroke-width="2" opacity="0.502"></path>
                        <path d="M2.13333333,143.106796 L7.46666667,143.106796" id="LCBL" stroke="#B20000" stroke-width="2" opacity="0.502"></path>
                        <path d="M2.13333333,126.019417 L7.46666667,126.019417" id="LCTL" stroke="#B20000" stroke-width="2" opacity="0.502"></path>
                        <path d="M244.266667,126.019417 L260.266667,126.019417" id="RCTLL" stroke="#B20000" stroke-width="3" opacity="0.502"></path>
                        <path d="M244.266667,143.106796 L260.266667,143.106796" id="RCBLL" stroke="#B20000" stroke-width="3" opacity="0.502"></path>
                        <path d="M133.333333,22.4271845 C133.333333,10.0408641 145.272213,0 160,0 C174.727787,0 186.666667,10.0408641 186.666667,22.4271845 C186.666667,34.8135049 174.727787,44.8543689 160,44.8543689 C145.272213,44.8543689 133.333333,34.8135049 133.333333,22.4271845 L133.333333,22.4271845 L133.333333,22.4271845 Z M133.333333,22.4271845" id="Ellipse" stroke="#B20000" stroke-width="2" opacity="0.502" fill="#4D7AFF"></path>
                    </g>
                </g>
            </g>
        </g>
    </g>
</svg>