<?xml version="1.0" encoding="UTF-8" standalone="no"?>
<svg width="300px" height="440px" viewBox="0 0 300 440" version="1.1" xmlns="http://www.w3.org/2000/svg" xmlns:xlink="http://www.w3.org/1999/xlink" xmlns:sketch="http://www.bohemiancoding.com/sketch/ns">
    <title>Slice 1</title>
    <defs></defs>
    <g id="Page 1" stroke="none" stroke-width="1" fill="none" fill-rule="evenodd">
        <g id="BackGround.fw" transform="translate(0.000000, -21.000000)">
            <g id="Layer%201">
                <path d="M0,21 L300,21 L300,461 L0,461 L0,21 L0,21 Z M0,21" id="Background%20Rectangle" fill="#ECECFB"></path>
                <path d="M0,351 L300,351" id="Offside%20Line" stroke="#4D7AFF" stroke-width="5" opacity="0.502" fill="#B0B0B0"></path>
                <path d="M0,460 L300,460" id="Back%20Line" stroke="#B20000" stroke-width="3" opacity="0.502"></path>
                <path d="M83,460 C83,429.6239 112.9965,405 150,405 C187.0036,405 217,429.6239 217,460 C217,490.3761 187.0036,515 150,515 C112.9965,515 83,490.3761 83,460 L83,460 Z M83,460" id="Center%20Circle" stroke="#B20000" stroke-width="3" opacity="0.502"></path>
                <path d="M49,126.5 C49,125.6716 49.6716,125 50.5,125 C51.3284,125 52,125.6716 52,126.5 C52,127.3284 51.3284,128 50.5,128 C49.6716,128 49,127.3284 49,126.5 L49,126.5 Z M49,126.5" id="Top%20Left%20Dot" stroke="#B20000" stroke-width="2" opacity="0.4" fill="#D90000"></path>
                <path d="M249,126.5 C249,125.6716 249.6716,125 250.5,125 C251.3284,125 252,125.6716 252,126.5 C252,127.3284 251.3284,128 250.5,128 C249.6716,128 249,127.3284 249,126.5 L249,126.5 Z M249,126.5" id="Top%20Right%20Dot" stroke="#B20000" stroke-width="2" opacity="0.4" fill="#D90000"></path>
                <path d="M249,382.5 C249,381.6716 249.6716,381 250.5,381 C251.3284,381 252,381.6716 252,382.5 C252,383.3284 251.3284,384 250.5,384 C249.6716,384 249,383.3284 249,382.5 L249,382.5 Z M249,382.5" id="Bottom%20Right%20Dot" stroke="#B20000" stroke-width="3" opacity="0.502" fill="#D90000"></path>
                <path d="M49,382.5 C49,381.6716 49.6716,381 50.5,381 C51.3284,381 52,381.6716 52,382.5 C52,383.3284 51.3284,384 50.5,384 C49.6716,384 49,383.3284 49,382.5 L49,382.5 Z M49,382.5" id="Bottom%20Left%20Dot" stroke="#B20000" stroke-width="3" opacity="0.502" fill="#D90000"></path>
                <path d="M147,459.5 C147,458.6716 147.6716,458 148.5,458 C149.3284,458 150,458.6716 150,459.5 C150,460.3284 149.3284,461 148.5,461 C147.6716,461 147,460.3284 147,459.5 L147,459.5 Z M147,459.5" id="Ceneter%20Dot" stroke="#B20000" stroke-width="3" opacity="0.502" fill="#D90000"></path>
                <path d="M0.5,21.5 L0.5,460.5" id="Left%20Edge" stroke="#D90000" opacity="0.502"></path>
                <path d="M0.5,21.5 L299.5,21.5 L299.5,460.5" id="Top%20and%20right%20edge" stroke="#D90000" opacity="0.502"></path>
                <path d="M210,126 C210,103.9083 227.9083,86 250,86 C272.0917,86 290,103.9083 290,126 C290,148.0917 272.0917,166 250,166 C227.9083,166 210,148.0917 210,126 L210,126 Z M210,126" id="Right%20Circle" stroke="#B20000" stroke-width="3" opacity="0.502"></path>
                <path d="M10,126 C10,103.9083 27.9083,86 50,86 C72.0917,86 90,103.9083 90,126 C90,148.0917 72.0917,166 50,166 C27.9083,166 10,148.0917 10,126 L10,126 Z M10,126" id="Left%20Circle" stroke="#B20000" stroke-width="3" opacity="0.502"></path>
                <path d="M244,134 L244.1667,149" id="RCBLD" stroke="#B20000" stroke-width="3" opacity="0.502"></path>
                <path d="M256,134 L256.1667,149" id="RCBRD" stroke="#B20000" stroke-width="3" opacity="0.502"></path>
                <path d="M256,103 L256.1667,118" id="RCTRU" stroke="#B20000" stroke-width="3" opacity="0.502"></path>
                <path d="M244,103 L244.1667,118" id="RCTLU" stroke="#B20000" stroke-width="3" opacity="0.502"></path>
                <path d="M44,103 L44.1667,118" id="LCTLU" stroke="#B20000" stroke-width="3" opacity="0.502"></path>
                <path d="M56,103 L56.1667,118" id="LCTRU" stroke="#B20000" stroke-width="3" opacity="0.502"></path>
                <path d="M56,134 L56.1667,149" id="LCBRD" stroke="#B20000" stroke-width="3" opacity="0.502"></path>
                <path d="M44,134 L44.1667,149" id="LCBLD" stroke="#B20000" stroke-width="3" opacity="0.502"></path>
                <path d="M56,118 L71,118" id="LCTRR" stroke="#B20000" stroke-width="3" opacity="0.502"></path>
                <path d="M29,118 L44,118" id="LCTLL" stroke="#B20000" stroke-width="3" opacity="0.502"></path>
                <path d="M29,134 L44,134" id="LCBLL" stroke="#B20000" stroke-width="3" opacity="0.502"></path>
                <path d="M56,134 L71,134" id="LCBRR" stroke="#B20000" stroke-width="3" opacity="0.502"></path>
                <path d="M256,134 L271,134" id="RCBRR" stroke="#B20000" stroke-width="3" opacity="0.502"></path>
                <path d="M256,118 L271,118" id="RCTRR" stroke="#B20000" stroke-width="3" opacity="0.502"></path>
                <path d="M293,118 L298,118" id="RCTR" stroke="#B20000" stroke-width="2" opacity="0.502"></path>
                <path d="M293,134 L298,134" id="RCBR" stroke="#B20000" stroke-width="2" opacity="0.502"></path>
                <path d="M202,134 L207,134" id="RCBL" stroke="#B20000" stroke-width="2" opacity="0.502"></path>
                <path d="M202,118 L207,118" id="RCTL" stroke="#B20000" stroke-width="2" opacity="0.502"></path>
                <path d="M93,118 L98,118" id="LCTR" stroke="#B20000" stroke-width="2" opacity="0.502"></path>
                <path d="M93,134 L98,134" id="LCBR" stroke="#B20000" stroke-width="2" opacity="0.502"></path>
                <path d="M2,134 L7,134" id="LCBL" stroke="#B20000" stroke-width="2" opacity="0.502"></path>
                <path d="M2,118 L7,118" id="LCTL" stroke="#B20000" stroke-width="2" opacity="0.502"></path>
                <path d="M229,118 L244,118" id="RCTLL" stroke="#B20000" stroke-width="3" opacity="0.502"></path>
                <path d="M229,134 L244,134" id="RCBLL" stroke="#B20000" stroke-width="3" opacity="0.502"></path>
                <path d="M125,21 C125,9.4019 136.1927,0 150,0 C163.8073,0 175,9.4019 175,21 C175,32.5981 163.8073,42 150,42 C136.1927,42 125,32.5981 125,21 L125,21 Z M125,21" id="Ellipse" stroke="#B20000" stroke-width="2" opacity="0.502" fill="#4D7AFF"></path>
            </g>
        </g>
    </g>
</svg>